<?xml version="1.0" standalone="no"?>
<!DOCTYPE svg PUBLIC "-//W3C//DTD SVG 20010904//EN"
 "http://www.w3.org/TR/2001/REC-SVG-20010904/DTD/svg10.dtd">
<svg version="1.0" xmlns="http://www.w3.org/2000/svg"
 width="1300.000000pt" height="1300.000000pt" viewBox="0 0 1300.000000 1300.000000"
 preserveAspectRatio="xMidYMid meet">

<g transform="translate(0.000000,1300.000000) scale(0.100000,-0.100000)"
fill="#FF0000" stroke="#FF0000" stroke-width="20">
<path d="M7140 11829 c-735 -50 -1589 -314 -2159 -669 -479 -297 -810 -682
-939 -1090 -63 -197 -77 -301 -77 -555 1 -256 11 -326 79 -530 144 -429 491
-830 960 -1107 l118 -71 -6 -41 c-3 -23 -17 -113 -30 -201 -71 -452 -131 -986
-171 -1524 -8 -112 -17 -206 -19 -208 -5 -5 -355 257 -496 371 -51 42 -139
117 -195 167 l-103 91 28 62 c55 120 76 260 49 320 -15 32 -59 50 -100 41 -51
-11 -122 -92 -176 -201 -44 -89 -49 -95 -72 -89 -14 4 -27 8 -28 9 -2 1 -14
46 -27 99 -47 183 -113 270 -206 271 -83 2 -137 -57 -147 -159 -5 -47 -9 -55
-22 -49 -38 17 -87 15 -119 -5 -79 -50 -95 -135 -59 -325 1 -6 -13 -12 -30
-14 -21 -2 -40 -13 -54 -30 -19 -24 -20 -35 -15 -100 19 -205 126 -434 288
-616 l53 -59 -42 -35 -41 -35 55 -51 c93 -85 223 -186 326 -254 53 -35 97 -65
97 -67 0 -6 -103 -33 -185 -48 -252 -47 -467 -23 -650 71 -104 53 -212 165
-263 273 -93 193 -112 414 -62 714 10 60 17 111 16 113 -2 1 -19 5 -39 9 l-35
5 -21 -63 c-123 -376 -134 -816 -26 -1138 143 -431 525 -732 1085 -855 204
-44 318 -58 546 -63 202 -5 312 1 458 24 34 5 38 4 33 -13 -10 -33 -65 -429
-91 -659 -51 -442 -76 -822 -76 -1137 l0 -218 42 -27 c73 -46 243 -123 370
-167 l122 -44 19 -87 c10 -48 17 -88 15 -90 -2 -2 -37 6 -78 17 -104 28 -337
36 -437 15 -85 -19 -173 -53 -251 -98 -55 -33 -242 -209 -242 -228 0 -17 51
-20 615 -31 303 -6 600 -13 661 -16 l111 -6 -78 231 c-63 186 -75 231 -61 227
40 -12 268 -47 412 -62 262 -29 771 -23 1054 12 l49 6 -5 -242 -4 -242 130 6
c72 3 382 11 689 18 308 6 557 16 557 21 0 19 -198 204 -252 236 -85 49 -211
89 -326 103 -124 14 -280 1 -417 -36 -49 -13 -91 -24 -91 -23 -1 1 -13 44 -26
95 l-25 92 21 5 c12 2 98 18 191 35 94 17 227 45 297 61 l127 30 -5 62 c-22
283 -62 1881 -50 2008 l7 77 98 -34 c507 -176 1068 -83 1592 263 275 181 458
407 542 668 45 140 52 190 51 380 0 206 -17 305 -85 508 -60 182 -202 462
-287 567 l-19 23 -31 -21 -30 -22 44 -77 c94 -165 139 -342 130 -508 -7 -120
-25 -193 -76 -301 -54 -116 -111 -197 -210 -294 -226 -224 -539 -354 -855
-354 -191 -1 -359 45 -491 134 -88 59 -114 90 -76 90 33 1 102 39 150 84 142
133 150 360 15 446 -65 41 -111 52 -207 49 l-81 -3 2 164 c4 256 28 466 84
741 27 136 101 425 111 435 3 2 52 -18 109 -45 219 -103 467 -184 700 -228 74
-14 145 -17 334 -17 263 0 336 10 525 74 374 125 709 428 890 804 126 263 181
558 150 802 -26 211 -84 331 -231 484 -127 132 -224 251 -584 720 -524 681
-783 999 -1083 1324 -403 437 -789 725 -1064 795 -144 37 -395 48 -668 30z
m560 -89 c357 -60 782 -398 1389 -1105 202 -235 416 -503 771 -965 385 -501
480 -618 612 -757 119 -124 164 -199 200 -332 29 -105 32 -366 5 -491 -66
-304 -197 -556 -401 -768 -210 -218 -439 -348 -736 -419 -85 -20 -141 -26
-290 -30 -269 -8 -463 24 -752 123 -125 43 -358 142 -392 167 -15 11 -12 25
29 147 65 189 143 376 241 578 l84 174 27 -22 c108 -83 220 -145 335 -183 77
-26 197 -52 204 -44 2 2 -48 27 -112 57 -306 142 -535 353 -666 615 -60 120
-69 109 90 123 149 13 376 51 487 81 86 23 55 26 -74 6 -408 -62 -895 -42
-1272 55 -280 72 -598 212 -834 368 -247 164 -493 387 -660 599 -44 56 -81
100 -83 98 -6 -5 74 -132 133 -210 233 -310 538 -561 896 -739 293 -146 548
-216 939 -260 25 -3 102 -5 172 -5 l128 -1 6 -27 c31 -147 88 -274 170 -382
l55 -71 -35 -63 c-134 -242 -342 -773 -416 -1062 -13 -49 -26 -94 -30 -98 -4
-4 -42 21 -84 57 -440 374 -905 593 -1433 673 -149 22 -527 22 -676 0 -161
-25 -325 -64 -454 -108 -64 -22 -117 -39 -118 -37 -5 5 71 449 110 643 61 303
158 662 242 905 19 54 20 55 69 64 184 32 319 83 443 168 76 51 182 138 156
126 -5 -2 -66 -31 -135 -65 -226 -110 -406 -153 -646 -154 -76 0 -157 3 -179
6 -108 16 -213 38 -291 61 -48 13 -89 23 -91 20 -3 -3 42 -27 99 -55 109 -54
261 -98 363 -107 33 -3 79 -7 102 -10 l41 -5 -34 -102 c-81 -239 -155 -525
-223 -866 -23 -113 -43 -207 -46 -209 -6 -6 -105 51 -207 120 -280 188 -522
437 -674 694 -227 384 -279 840 -148 1292 196 673 939 1247 2019 1557 345 98
652 154 1055 189 83 7 454 -3 520 -14z m-1455 -4180 c430 -35 842 -181 1225
-434 127 -84 297 -215 381 -293 l46 -43 -13 -58 c-55 -237 -92 -549 -100 -832
l-5 -194 -48 -46 c-26 -25 -60 -68 -76 -95 -16 -28 -30 -52 -31 -54 -2 -1 -40
26 -86 62 -224 174 -437 275 -657 312 -62 11 -129 16 -167 12 -63 -5 -65 -4
-79 23 -20 39 -106 114 -160 139 -107 50 -286 66 -413 36 -115 -27 -239 -107
-258 -167 -4 -13 -11 -17 -22 -13 -122 47 -136 49 -292 50 -173 0 -243 -14
-408 -80 -47 -19 -89 -35 -92 -35 -4 0 -5 21 -3 48 2 26 10 139 19 252 29 388
114 1163 134 1215 15 38 308 132 533 170 196 33 376 41 572 25z m-2631 -692
c36 -36 69 -115 93 -219 l15 -66 -77 -98 c-106 -136 -242 -341 -232 -351 2 -2
37 38 77 88 41 50 121 138 177 196 97 98 105 104 136 98 115 -20 114 -20 121
10 22 90 143 284 177 284 16 0 9 -97 -12 -164 -25 -84 -134 -312 -228 -481
-119 -213 -307 -483 -336 -484 -27 -1 -182 212 -235 324 -41 85 -74 195 -85
283 -6 52 -5 53 17 50 14 -2 35 -21 55 -52 36 -56 54 -69 78 -60 22 9 16 43
-23 149 -58 158 -63 288 -10 316 41 22 64 -2 133 -146 64 -133 79 -151 105
-120 10 12 6 35 -20 117 -49 160 -53 295 -9 339 27 27 46 24 83 -13z m544
-566 c120 -107 254 -214 477 -382 105 -78 193 -145 198 -149 4 -4 -37 -37 -90
-74 -54 -36 -148 -106 -209 -154 -175 -141 -357 -251 -510 -312 l-52 -20 -76
44 c-66 37 -171 109 -255 174 l-23 18 52 49 c173 162 332 414 410 653 33 103
34 104 21 97 -5 -3 -12 -18 -16 -33 -22 -91 -120 -271 -215 -398 -67 -88 -225
-250 -286 -293 l-31 -21 -21 21 -21 21 77 82 c134 143 263 338 398 608 41 81
77 147 80 147 3 0 44 -35 92 -78z m2152 -281 c243 -40 336 -189 181 -291 -64
-43 -131 -61 -246 -67 -185 -10 -343 55 -375 153 -42 127 207 243 440 205z
m1770 -373 c95 -48 116 -142 59 -258 -44 -88 -132 -148 -219 -149 -32 0 -44 9
-133 104 l-99 105 21 43 c32 67 90 127 145 153 69 32 164 33 226 2z m-1730
-170 c153 -284 387 -596 620 -828 181 -180 384 -334 565 -427 l75 -38 -6 -115
c-8 -137 11 -1033 31 -1525 8 -192 15 -380 15 -417 l0 -66 -72 -17 c-1001
-231 -1924 -216 -2633 43 l-80 29 3 144 c7 439 67 1167 109 1334 21 85 90 173
319 405 l193 195 -6 -70 c-16 -198 78 -405 183 -405 54 0 69 29 69 130 l0 87
38 -58 c66 -101 155 -162 238 -163 56 -1 84 20 101 76 10 33 15 38 32 33 108
-32 473 -120 581 -140 142 -26 327 -50 455 -58 86 -6 59 1 -115 28 -222 35
-567 126 -832 220 l-131 47 -31 130 c-17 72 -29 133 -27 136 3 2 20 -7 38 -21
47 -36 117 -67 154 -67 49 0 84 34 84 80 0 66 -83 256 -195 445 l-45 77 46 64
c25 35 48 64 51 64 2 0 71 -38 151 -84 172 -98 484 -256 626 -316 125 -53 317
-121 328 -118 5 2 -39 23 -99 48 -221 90 -554 272 -821 447 -117 76 -143 97
-137 111 53 125 58 184 17 190 -85 12 -469 -318 -599 -516 -34 -52 -63 -97
-65 -100 -2 -4 -52 -51 -113 -106 -153 -137 -435 -416 -513 -506 -83 -97 -108
-149 -137 -279 -51 -227 -74 -520 -82 -1023 -4 -240 -10 -388 -16 -388 -5 0
-27 10 -48 22 l-39 22 0 203 c0 413 55 1032 140 1593 17 106 30 197 30 201 0
4 24 13 53 19 92 22 278 90 374 137 299 145 554 369 735 644 106 162 189 358
204 482 l7 56 51 4 c28 2 56 4 61 5 6 1 35 -44 65 -100z m-129 -472 c-27 -62
-77 -136 -151 -224 l-61 -72 84 -169 c89 -178 150 -324 145 -347 -5 -24 -103
32 -167 95 -31 31 -97 115 -145 186 -49 72 -92 134 -97 139 -4 4 11 -50 32
-120 69 -226 177 -611 184 -658 6 -38 4 -46 -14 -55 -44 -24 -132 20 -209 104
-44 48 -82 113 -130 225 -9 19 -10 6 -4 -55 10 -118 8 -263 -5 -276 -32 -32
-95 59 -119 172 -41 190 32 462 183 686 105 156 293 335 433 412 64 36 72 27
41 -43z m-703 -677 c-6 -18 -87 -107 -197 -217 -193 -195 -322 -340 -365 -414
-41 -71 -70 -259 -101 -648 -19 -246 -45 -720 -45 -822 0 -66 -3 -78 -17 -78
-15 0 -16 28 -10 358 10 518 34 845 79 1052 37 175 60 211 263 419 121 124
390 381 400 381 2 0 -1 -14 -7 -31z"/>
<path d="M5723 7276 c-50 -13 -124 -41 -165 -60 -76 -38 -168 -96 -168 -107 0
-4 35 8 78 27 139 60 218 76 410 81 190 6 204 12 109 51 -86 34 -156 36 -264
8z"/>
<path d="M6668 7176 c-25 -7 -59 -21 -75 -31 l-28 -20 45 -7 c25 -3 94 -7 153
-7 131 -1 235 -21 347 -67 120 -50 132 -51 75 -9 -108 81 -313 156 -422 154
-26 0 -69 -6 -95 -13z"/>
<path d="M5591 6521 c-67 -72 -69 -239 -3 -312 104 -113 234 63 180 244 -28
93 -120 129 -177 68z"/>
<path d="M6927 6410 c-61 -48 -81 -195 -38 -283 22 -46 61 -77 96 -77 82 0
141 129 115 254 -22 107 -106 158 -173 106z"/>
<path d="M7920 5581 c-41 -13 -84 -38 -106 -63 -28 -30 -60 -93 -42 -81 7 4
38 24 68 45 58 37 143 68 191 68 43 0 44 18 2 29 -43 12 -77 13 -113 2z"/>
<path d="M5202 3794 c-26 -18 -52 -65 -52 -94 0 -36 28 -85 59 -103 48 -28 98
-22 137 17 29 29 34 41 34 83 0 51 -18 82 -57 102 -31 16 -95 14 -121 -5z m98
-69 c7 -9 10 -25 6 -40 -6 -22 -11 -26 -39 -23 -25 2 -33 8 -35 26 -7 44 41
70 68 37z"/>
<path d="M6056 3700 c-40 -36 -52 -76 -36 -125 15 -46 57 -75 109 -75 112 0
158 126 75 200 -48 42 -100 41 -148 0z m110 -75 c7 -29 -10 -55 -36 -55 -26 0
-43 26 -36 55 5 20 13 25 36 25 23 0 31 -5 36 -25z"/>
<path d="M5070 3003 c-64 -21 -90 -56 -90 -123 0 -79 88 -131 162 -96 94 45
89 172 -8 212 -35 15 -40 15 -64 7z m48 -82 c8 -5 12 -21 10 -37 -2 -23 -9
-30 -29 -32 -36 -4 -55 21 -41 53 12 25 36 32 60 16z"/>
<path d="M5998 2920 c-57 -45 -61 -125 -7 -176 41 -39 114 -42 153 -5 52 49
52 139 -1 181 -35 27 -111 27 -145 0z m106 -72 c16 -26 -4 -53 -40 -53 -23 0
-30 5 -32 23 -7 47 47 69 72 30z"/>
</g>
</svg>
